<svg xmlns="http://www.w3.org/2000/svg" viewBox="0 0 87.86 105.22"><defs><style>.cls-1{fill:#fff;}.cls-2{fill:#1976d2;}</style></defs><g id="Layer_2" data-name="Layer 2"><g id="Layer_1-2" data-name="Layer 1"><g id="Onion"><path id="Flesh" class="cls-1" d="M43.37,71.34a1.27,1.27,0,0,0,.44-.51,4.74,4.74,0,0,0,.61-2.39c-.12-6.79-.22-12.88-4-14.46-4.05-1.72-9.38,3.14-10.71,4.35a19.84,19.84,0,0,0-6.17,12.34c-.1,1-.76,9.34,5.46,15.41s15.45,6.06,21.72,3.53A22.25,22.25,0,0,0,61.88,79.16c5.31-10,1.61-20.31.85-22.3C57.78,44,43.35,36.11,29.88,36.78c-2.17.11-15.82,1-24.16,12.42A30.55,30.55,0,0,0,0,67.36c.15,16.14,13.38,29.51,26.23,34.7,12.61,5.1,24,2.76,28.78,1.65s17.12-4,25.53-15.08a34.47,34.47,0,0,0,7.24-18.46,34.79,34.79,0,0,0-3.42-17.32c-1.11-2.3-6.16-12.09-17-17C57,31.21,48.52,34.37,45.65,29.12a8.46,8.46,0,0,1-.41-6.21,1,1,0,0,0-1.05-1.28l-1.6,0a1.07,1.07,0,0,0-1,.8c-.66,2.51-1.12,6,.51,9.17C46,39.08,56.87,35.31,67.56,42.78c8.29,5.79,14.14,16.69,13.21,27.29a28.06,28.06,0,0,1-6,14.65c-7,9-17,11.29-21.82,12.38-4,.9-13.19,2.87-23.54-.93-2.65-1-20.33-8.29-22.38-25C5.72,60.55,13,48.9,24.21,44.93c13-4.6,27.26,2.75,32.09,13.26.58,1.25,4.85,10.93-.59,18.72-4.05,5.79-13.07,9.94-19.77,6A13.48,13.48,0,0,1,30,68.25c1.42-5,6.37-8.72,8.13-7.84s2.94,6.14,3,9.85A1.39,1.39,0,0,0,43.37,71.34Z"/><path id="Stem" class="cls-2" d="M30,27.14l-4.17,1.27a1.16,1.16,0,0,1-1.49-.93l-.11-.72a26.93,26.93,0,0,0-4.53-11.09A1.13,1.13,0,0,1,20.06,14l1.06-.63a1.15,1.15,0,0,1,1.52.32c.41.58.82,1.17,1.23,1.78l1.48,2.2C28.42,7.27,37.14.12,46.21,0,58.09-.16,65.59,10.67,68,17.63a23.37,23.37,0,0,1,.94,3.64.91.91,0,0,1-1.14,1l-2.66-.73a1.47,1.47,0,0,1-1-1.08,19.71,19.71,0,0,0-1.9-4.8c-3-5.44-9.67-11.21-16.55-10.59-7.74.7-15.22,9.46-14.85,20.91A1.14,1.14,0,0,1,30,27.14Z"/></g></g></g></svg>